<?xml version="1.0" encoding="utf-8"?>
<!-- Generator: Adobe Illustrator 18.1.1, SVG Export Plug-In . SVG Version: 6.00 Build 0)  -->
<!DOCTYPE svg PUBLIC "-//W3C//DTD SVG 1.1//EN" "http://www.w3.org/Graphics/SVG/1.1/DTD/svg11.dtd">
<svg version="1.1" id="Layer_1" xmlns="http://www.w3.org/2000/svg" xmlns:xlink="http://www.w3.org/1999/xlink" x="0px" y="0px"
	 viewBox="-25 30 25 20" enable-background="new -25 30 25 20" xml:space="preserve">
<g>
</g>
<g>
	<path fill="#aaaaaa" d="M-3.4,33.5c0.5,0,0.9,0.5,0.9,1.1v10.7c0,0.6-0.4,1.1-0.9,1.1h-18.2c-0.5,0-0.9-0.5-0.9-1.1V34.6
		c0-0.3,0.1-0.6,0.3-0.8c0.1-0.1,0.3-0.3,0.7-0.3H-3.4 M-3.4,31.5h-18.2c-0.9,0-1.7,0.4-2.2,1.1c-0.5,0.5-0.7,1.3-0.7,2v10.7
		c0,1.7,1.3,3.1,2.9,3.1h18.2c1.6,0,2.9-1.4,2.9-3.1V34.6C-0.5,32.9-1.8,31.5-3.4,31.5L-3.4,31.5z"/>
</g>
<line fill="none" stroke="#aaaaaa" stroke-width="2" stroke-miterlimit="10" x1="-15.9" y1="41.2" x2="-22.6" y2="47.6"/>
<line fill="none" stroke="#aaaaaa" stroke-width="2" stroke-miterlimit="10" x1="-9.1" y1="41.2" x2="-2.4" y2="47.6"/>
<path fill="none" stroke="#aaaaaa" stroke-width="2" stroke-miterlimit="10" d="M-2.4,33.7l-8.6,9.1c-0.9,0.9-2.3,0.9-3.1,0
	l-8.6-9.1"/>
</svg>
